<?xml version="1.0" encoding="UTF-8" standalone="no"?>
<!-- Created with Inkscape (http://www.inkscape.org/) -->

<svg
   width="200"
   height="200"
   viewBox="0 0 52.916666 52.916666"
   version="1.1"
   id="svg5"
   xml:space="preserve"
   inkscape:version="1.2.2 (b0a8486541, 2022-12-01)"
   sodipodi:docname="brillarella_isotipo_alfa.svg"
   inkscape:export-filename="dibujo12.png"
   inkscape:export-xdpi="96"
   inkscape:export-ydpi="96"
   xmlns:inkscape="http://www.inkscape.org/namespaces/inkscape"
   xmlns:sodipodi="http://sodipodi.sourceforge.net/DTD/sodipodi-0.dtd"
   xmlns="http://www.w3.org/2000/svg"
   xmlns:svg="http://www.w3.org/2000/svg"><sodipodi:namedview
     id="namedview7"
     pagecolor="#f2f2f2"
     bordercolor="#000000"
     borderopacity="0.25"
     inkscape:showpageshadow="2"
     inkscape:pageopacity="0"
     inkscape:pagecheckerboard="0"
     inkscape:deskcolor="#d1d1d1"
     inkscape:document-units="mm"
     showgrid="false"
     inkscape:zoom="0.74569388"
     inkscape:cx="368.11352"
     inkscape:cy="139.46742"
     inkscape:window-width="1920"
     inkscape:window-height="1011"
     inkscape:window-x="0"
     inkscape:window-y="0"
     inkscape:window-maximized="1"
     inkscape:current-layer="layer1" /><defs
     id="defs2" /><g
     inkscape:label="Capa 1"
     inkscape:groupmode="layer"
     id="layer1"><g
       id="g304"
       transform="matrix(0.06423293,0,0,0.06423293,6.5275176,4.1860466)"><g
         id="g980"
         transform="matrix(4.1325628,1.190531,-1.3161731,4.568691,-1102.6802,-1227.4978)"
         style="fill:#0d0d0d;fill-opacity:1;stroke:#0d0d0d;stroke-opacity:1"><path
           style="font-variation-settings:'wght' 400;fill:#0d0d0d;fill-opacity:1;stroke:#0d0d0d;stroke-width:5.89424;stroke-linecap:round;stroke-linejoin:round;stroke-miterlimit:3.3;stroke-dasharray:none;stroke-opacity:1;paint-order:markers stroke fill;stop-color:#000000"
           d="m 431.62031,182.5651 -0.15093,11.89017"
           id="path951" /><path
           style="font-variation-settings:'wght' 400;fill:#0d0d0d;fill-opacity:1;stroke:#0d0d0d;stroke-width:5.89424;stroke-linecap:round;stroke-linejoin:round;stroke-miterlimit:3.3;stroke-dasharray:none;stroke-opacity:1;paint-order:markers stroke fill;stop-color:#000000"
           d="m 460.87295,189.6645 -8.82866,7.96579"
           id="path973" /><path
           style="font-variation-settings:'wght' 400;fill:#0d0d0d;fill-opacity:1;stroke:#0d0d0d;stroke-width:5.89424;stroke-linecap:round;stroke-linejoin:round;stroke-miterlimit:3.3;stroke-dasharray:none;stroke-opacity:1;paint-order:markers stroke fill;stop-color:#000000"
           d="m 402.21674,189.6645 8.82866,7.96579"
           id="path975" /></g><path
         id="path471"
         style="fill:#0d0d0d;fill-opacity:1;stroke-width:1.61787"
         d="m 374.48722,217.47091 c -20.99551,-0.41007 -42.16572,1.14521 -62.41228,6.73713 -21.34389,5.57007 -42.22847,13.28005 -61.23375,24.41725 -11.38148,6.61841 -22.34233,14.1848 -31.43593,23.70193 -11.35216,11.50476 -21.15916,24.8087 -26.84076,39.98736 -3.57922,8.72468 -4.82938,18.24565 -4.73747,27.63744 0.065,6.13744 1.85215,12.16532 4.93497,17.50233 4.2197,8.2691 10.32092,15.91785 18.70323,20.36748 5.91761,3.72993 12.29887,6.94948 19.26257,8.16115 10.97959,2.57985 22.44252,3.73881 33.64264,2.32688 9.40602,-1.68145 18.90312,-4.74713 26.08389,-11.19632 3.75019,-3.2541 7.30123,-7.14838 8.87306,-11.91137 0.36531,-2.68159 -2.91271,-4.44783 -5.21112,-3.348 -7.32282,1.83312 -13.92304,5.64388 -21.19554,7.64037 -7.47104,2.44991 -16.3486,2.96967 -23.80319,-0.47951 -5.17843,-2.00431 -10.57751,-4.83957 -13.79391,-9.62322 -5.83162,-7.49522 -10.46442,-16.5165 -10.32222,-26.14813 -0.21029,-9.99682 3.3017,-19.75724 6.92114,-28.79227 3.51229,-9.02941 8.77101,-17.32288 15.37145,-24.4459 5.81812,-6.73567 12.3083,-12.53088 19.64777,-17.57439 11.79644,-8.39839 24.90972,-15.07578 38.39427,-20.1535 12.50201,-4.2877 25.54304,-6.89598 38.58899,-9.04622 12.44341,-1.79017 25.02523,-3.09529 37.62896,-2.84671 16.23519,0.7022 31.91991,5.01939 47.41299,9.61845 1.73686,0.59106 3.50392,1.24554 4.99242,2.33113 -7.50952,5.80918 -15.71509,10.72033 -22.91308,16.93168 -16.85147,14.05174 -30.35891,31.4853 -42.94807,49.24929 -11.62455,16.54697 -21.45376,34.23297 -30.72697,52.15802 -16.3712,31.01308 -31.55728,62.67267 -49.38382,92.9104 -11.39396,19.09188 -23.49878,38.08421 -39.24707,54.05502 -10.92514,10.98974 -23.20116,20.6325 -36.43226,28.78963 -10.12865,6.03921 -21.15002,10.80315 -32.24942,14.15978 -7.20441,2.37951 -14.72655,4.03159 -22.38196,3.82062 -9.20542,0.0225 -18.00083,-1.32084 -26.8589,-3.60988 -9.79104,-2.91196 -19.14537,-7.52558 -26.97283,-14.22408 -8.746955,-7.04056 -15.593159,-16.26527 -20.41384,-26.2924 -2.92977,-6.41813 -5.50082,-13.39423 -4.477134,-20.52661 0.477611,-3.64268 1.850388,-7.92926 2.850891,-11.80459 1.364294,-5.3405 3.813953,-10.98488 7.803482,-14.97027 7.98804,-9.11603 17.933091,-16.6386 29.226931,-21.32728 11.43569,-5.2942 23.94859,-7.74526 36.4256,-9.32159 3.55711,-0.62651 7.25172,-0.99604 10.6448,-2.20096 2.3531,-0.97482 2.78421,-4.79257 0.15443,-5.72946 -4.29634,-1.37813 -8.77472,-0.0554 -13.14348,0.0663 -19.62107,1.7568 -39.37261,5.52973 -57.124304,14.14986 -5.943763,3.09026 -10.978729,7.37624 -15.970746,11.77344 -9.475359,8.73703 -16.638732,19.86655 -20.993823,31.92251 -3.148792,9.05414 -4.002298,18.87472 -2.754599,28.38198 1.950222,12.20046 9.215319,23.11351 18.417411,31.29936 5.382926,4.68203 11.589622,8.37268 17.891162,11.70864 8.405749,4.10257 17.561969,6.44326 26.687229,8.33005 8.16976,1.65011 16.48634,2.32051 24.75753,3.15318 4.14105,0.55473 7.32067,3.45806 11.22251,4.67156 10.88326,3.96644 22.21666,6.51498 33.4543,9.24892 15.76425,3.70338 31.72046,6.68292 47.85473,8.12988 26.52819,2.87788 53.39246,3.24325 79.85183,-0.0576 18.08499,-2.18174 35.99896,-5.93069 53.29392,-11.53026 19.35162,-7.23134 38.16048,-16.53744 54.13995,-29.61598 6.97671,-6.14323 13.36402,-12.96661 19.02595,-20.31372 6.215,-8.49584 11.52747,-17.66893 15.80432,-27.27102 5.81022,-12.89677 7.50792,-27.45026 5.58506,-41.44243 -1.94277,-9.81193 -6.07598,-19.34128 -12.87988,-26.86826 -6.1023,-7.23306 -13.1213,-13.90317 -21.38646,-18.66295 -3.28399,-1.41184 -7.18672,-2.57038 -9.13649,-5.76994 7.80829,-6.77398 17.46795,-11.03967 25.71278,-17.25824 15.20286,-10.30532 28.39869,-23.8357 36.84203,-40.13442 5.17306,-9.65266 9.09123,-19.98885 11.10937,-30.76451 1.59081,-8.22282 1.49447,-16.73159 0.40158,-25.02957 -2.08103,-12.6539 -8.6034,-24.25742 -16.92356,-33.99361 -7.12749,-8.52226 -15.67595,-16.0816 -25.58686,-21.27903 -9.06722,-4.26782 -18.02154,-8.89429 -27.51636,-12.16549 -14.25734,-4.62014 -29.26934,-6.14716 -44.12657,-7.36763 -2.02525,-0.12961 -4.05334,-0.1982 -6.08152,-0.24094 z m 73.56233,39.84583 c 3.96144,4.75486 5.35965,10.94327 7.25428,16.66303 2.81272,8.99873 2.94907,18.51895 2.34297,27.81327 -0.60085,10.78122 -4.10921,20.98733 -7.33036,31.13062 -3.29453,9.87282 -6.8743,19.79632 -12.78053,28.46978 -4.16748,6.22558 -9.02294,12.35759 -14.56709,17.56624 -7.61923,6.21466 -16.46739,10.90934 -25.70528,14.34969 -6.57084,2.46759 -13.59968,4.25129 -20.47648,4.80097 -4.96046,0.3341 -10.34324,1.07293 -14.96302,-1.24701 -1.33278,-1.78651 -0.18358,-4.25652 0.36986,-6.14472 5.63924,-14.17814 12.59914,-27.7883 19.30299,-41.48776 10.48594,-20.83084 20.70529,-41.99121 34.75124,-60.75871 7.79404,-10.27735 16.13199,-20.3155 26.42457,-28.26613 1.63338,-1.13202 3.43583,-2.53433 5.37668,-2.88927 z m -75.46621,154.71813 c 8.0499,0.51653 15.96721,0.71895 23.77002,2.29014 5.28075,1.84732 9.40714,5.67814 12.81359,9.80203 4.81171,5.56034 8.73025,11.97771 10.50425,19.12027 4.37406,15.22501 5.09118,31.62065 0.65086,46.85097 -3.2784,11.40023 -9.01892,22.16993 -15.73241,32.05621 -5.122,6.97607 -11.13301,13.34534 -17.79137,18.90501 -12.38261,9.7871 -26.56848,17.56781 -41.55782,23.02034 -8.79493,2.91977 -17.94503,4.68514 -27.04773,6.42687 -14.12467,2.50521 -28.38853,3.80569 -42.85324,4.12374 -14.00741,0.14619 -28.37574,-0.72812 -42.33128,-1.96481 -14.67349,-1.47684 -29.32547,-3.55905 -43.70654,-6.8892 -1.7737,-0.42524 -3.52986,-0.91594 -5.28113,-1.42485 11.33107,-1.84657 22.61525,-4.13997 33.07483,-8.92992 18.65814,-8.27961 35.93441,-19.41954 51.49977,-32.47454 13.83642,-12.0394 26.68582,-25.21405 37.87897,-39.70285 14.90269,-18.62988 27.42502,-38.96469 39.60774,-59.39922 2.3223,-3.738 4.66639,-7.50056 7.28642,-11.02455 3.15798,-1.23259 6.6247,-0.79236 9.97824,-1.00597 3.07974,-0.002 6.15858,0.10684 9.2366,0.22126 z"
         sodipodi:nodetypes="ccccccccccccccccccccccccccccccccccccccccccccccccccccccccccccccccccccccccccsccccccccccccssccccccccccccccccccccc" /></g></g></svg>
