<?xml version="1.0" encoding="UTF-8" standalone="no"?>
<!-- Created with Inkscape (http://www.inkscape.org/) -->

<svg
   width="660"
   height="200"
   viewBox="0 0 174.625 52.916666"
   version="1.1"
   id="svg5"
   xml:space="preserve"
   inkscape:version="1.2.2 (b0a8486541, 2022-12-01)"
   sodipodi:docname="brillarella_logotipo_alfa.svg"
   inkscape:export-filename="dibujo12.png"
   inkscape:export-xdpi="96"
   inkscape:export-ydpi="96"
   xmlns:inkscape="http://www.inkscape.org/namespaces/inkscape"
   xmlns:sodipodi="http://sodipodi.sourceforge.net/DTD/sodipodi-0.dtd"
   xmlns="http://www.w3.org/2000/svg"
   xmlns:svg="http://www.w3.org/2000/svg"><sodipodi:namedview
     id="namedview7"
     pagecolor="#f2f2f2"
     bordercolor="#000000"
     borderopacity="0.25"
     inkscape:showpageshadow="2"
     inkscape:pageopacity="0"
     inkscape:pagecheckerboard="0"
     inkscape:deskcolor="#d1d1d1"
     inkscape:document-units="mm"
     showgrid="false"
     inkscape:zoom="0.5272852"
     inkscape:cx="73.015514"
     inkscape:cy="153.61706"
     inkscape:window-width="1920"
     inkscape:window-height="1011"
     inkscape:window-x="0"
     inkscape:window-y="0"
     inkscape:window-maximized="1"
     inkscape:current-layer="layer1" /><defs
     id="defs2" /><g
     inkscape:label="Capa 1"
     inkscape:groupmode="layer"
     id="layer1"><g
       id="g1626"
       transform="matrix(0.27806626,0,0,0.27806626,-4.6521224,-10.327514)"><g
         id="g980"
         transform="matrix(1.6196188,0.46658852,-0.51582972,1.7905445,-435.13201,-484.67879)"
         style="fill:none;fill-opacity:1;stroke:#0d0d0d;stroke-opacity:1"><path
           style="font-variation-settings:'wght' 400;fill:none;fill-opacity:1;stroke:#0d0d0d;stroke-width:5.89424;stroke-linecap:round;stroke-linejoin:round;stroke-miterlimit:3.3;stroke-dasharray:none;stroke-opacity:1;paint-order:markers stroke fill;stop-color:#000000"
           d="m 431.62031,182.5651 -0.15093,11.89017"
           id="path951" /><path
           style="font-variation-settings:'wght' 400;fill:none;fill-opacity:1;stroke:#0d0d0d;stroke-width:5.89424;stroke-linecap:round;stroke-linejoin:round;stroke-miterlimit:3.3;stroke-dasharray:none;stroke-opacity:1;paint-order:markers stroke fill;stop-color:#000000"
           d="m 460.87295,189.6645 -8.82866,7.96579"
           id="path973" /><path
           style="font-variation-settings:'wght' 400;fill:none;fill-opacity:1;stroke:#0d0d0d;stroke-width:5.89424;stroke-linecap:round;stroke-linejoin:round;stroke-miterlimit:3.3;stroke-dasharray:none;stroke-opacity:1;paint-order:markers stroke fill;stop-color:#000000"
           d="m 402.21674,189.6645 8.82866,7.96579"
           id="path975" /></g><path
         id="path471"
         style="fill:#0d0d0d;fill-opacity:1;stroke-width:0.63407"
         d="m 143.79399,81.627994 c -8.22849,-0.160708 -16.52544,0.448832 -24.4604,2.640389 -8.36502,2.183014 -16.55002,5.204671 -23.998505,9.56952 -4.460585,2.593863 -8.756321,5.559266 -12.320249,9.289177 -4.449097,4.5089 -8.292621,9.72293 -10.519331,15.67169 -1.402754,3.41935 -1.892712,7.15077 -1.856694,10.83157 0.02549,2.40537 0.725891,4.76778 1.934095,6.85945 1.653771,3.2408 4.044937,6.23847 7.330102,7.98235 2.319208,1.46181 4.820123,2.72361 7.549312,3.19849 4.303087,1.01108 8.795589,1.4653 13.1851,0.91194 3.68638,-0.65899 7.40844,-1.86048 10.2227,-4.38802 1.46977,-1.27534 2.86148,-2.80157 3.4775,-4.66826 0.14317,-1.05097 -1.14154,-1.74319 -2.04232,-1.31214 -2.86993,0.71843 -5.45667,2.21193 -8.30688,2.99439 -2.92802,0.96015 -6.407284,1.16385 -9.328854,-0.18793 -2.029517,-0.78552 -4.145508,-1.89671 -5.406067,-3.7715 -2.285498,-2.9375 -4.101168,-6.47309 -4.045445,-10.24788 -0.08242,-3.91792 1.293998,-7.74318 2.712508,-11.28416 1.376527,-3.53877 3.437503,-6.78912 6.024326,-9.58075 2.280215,-2.63981 4.823828,-4.91105 7.700282,-6.887686 4.62322,-3.291461 9.76252,-5.908444 15.04734,-7.898485 4.89974,-1.680418 10.01073,-2.702638 15.12366,-3.545356 4.87677,-0.701595 9.80779,-1.213101 14.7474,-1.115669 6.36284,0.275193 12.50993,1.967171 18.58192,3.769625 0.68071,0.231649 1.37325,0.488146 1.95661,0.913601 -2.9431,2.276715 -6.159,4.201475 -8.98001,6.6358 -6.60437,5.50711 -11.89815,12.3396 -16.83204,19.30161 -4.55586,6.48502 -8.40809,13.41645 -12.04241,20.44156 -6.41614,12.15454 -12.36781,24.56246 -19.35432,36.41311 -4.46548,7.48242 -9.20955,14.92583 -15.381568,21.18505 -4.281735,4.30706 -9.092911,8.08621 -14.278399,11.28312 -3.969583,2.36687 -8.289036,4.23394 -12.639074,5.54945 -2.823525,0.93257 -5.771573,1.58005 -8.771855,1.49737 -3.607754,0.008 -7.05482,-0.51766 -10.526438,-1.41478 -3.83727,-1.14124 -7.503384,-2.9494 -10.571093,-5.57464 -3.428075,-2.75932 -6.111214,-6.37463 -8.000517,-10.30443 -1.148225,-2.51537 -2.155861,-5.24941 -1.754662,-8.0447 0.187184,-1.42764 0.725197,-3.10761 1.117311,-4.62642 0.534689,-2.09303 1.49475,-4.30515 3.058312,-5.8671 3.130643,-3.57271 7.02827,-6.52092 11.454512,-8.3585 4.481833,-2.07488 9.385842,-3.03549 14.275783,-3.65328 1.394093,-0.24554 2.842071,-0.39037 4.171875,-0.8626 0.922217,-0.38204 1.091176,-1.87828 0.06052,-2.24546 -1.683805,-0.54012 -3.438954,-0.0217 -5.151144,0.026 -7.689819,0.68852 -15.430767,2.1672 -22.387946,5.54557 -2.329458,1.21112 -4.302744,2.89087 -6.259197,4.6142 -3.713548,3.42418 -6.52099,7.78603 -8.227821,12.51096 -1.234063,3.54846 -1.568566,7.39731 -1.079573,11.12335 0.764324,4.78156 3.611634,9.05857 7.218084,12.26674 2.109656,1.83496 4.542162,3.28138 7.011838,4.58881 3.294351,1.60786 6.882823,2.52522 10.459159,3.26468 3.201862,0.6467 6.461269,0.90944 9.702879,1.23578 1.622946,0.21741 2.869092,1.35526 4.398287,1.83086 4.265327,1.55451 8.707069,2.55332 13.111286,3.6248 6.178265,1.45142 12.431764,2.61915 18.755048,3.18623 10.396823,1.1279 20.925373,1.27108 31.295243,-0.0226 7.08779,-0.85506 14.10857,-2.32434 20.88675,-4.51889 7.58422,-2.83409 14.95572,-6.4813 21.21832,-11.60699 2.7343,-2.40763 5.23759,-5.08183 7.45659,-7.96128 2.43576,-3.32966 4.51781,-6.92475 6.19397,-10.68796 2.27712,-5.05446 2.94247,-10.7582 2.18888,-16.24196 -0.76141,-3.84546 -2.38128,-7.58017 -5.04784,-10.53012 -2.39159,-2.83475 -5.14245,-5.44887 -8.38171,-7.3143 -1.28704,-0.55332 -2.81659,-1.00738 -3.58073,-2.26134 3.06019,-2.65483 6.84598,-4.32662 10.07726,-6.76378 5.95825,-4.03882 11.12991,-9.3416 14.43899,-15.72934 2.0274,-3.78303 3.563,-7.83395 4.35394,-12.05712 0.62347,-3.22265 0.58571,-6.55738 0.15739,-9.80949 -0.81559,-4.95927 -3.37181,-9.50688 -6.63262,-13.322649 -2.79337,-3.340012 -6.14366,-6.302636 -10.02791,-8.339601 -3.55359,-1.672625 -7.06293,-3.48581 -10.78411,-4.767844 -5.58769,-1.810713 -11.47113,-2.409181 -17.29392,-2.887496 -0.79373,-0.05077 -1.58857,-0.07764 -2.38344,-0.09441 z m 415.72148,24.052946 c -3.54304,0.32111 -6.61374,2.33928 -9.41924,4.33847 -5.23486,3.76285 -9.63626,8.49536 -13.99819,13.18301 -3.21537,3.57149 -6.38273,7.19797 -9.27906,11.0287 -4.5437,6.27938 -8.61157,12.88364 -12.37063,19.65112 -5.38072,9.56671 -10.44521,19.32418 -14.76006,29.41368 -1.31491,3.13764 -2.4597,6.4656 -4.58248,9.11521 -2.86533,3.02894 -6.10577,5.7232 -9.71265,7.85567 -4.11878,2.48967 -8.56591,4.58931 -13.32107,5.58255 -3.94086,0.8299 -8.34991,-0.1371 -11.28503,-2.98203 -2.79101,-2.55214 -3.55455,-6.69145 -2.61562,-10.20712 0.30926,-1.02733 0.71402,-2.10515 1.43822,-2.90042 2.34049,-1.10537 4.88064,-1.73125 7.32819,-2.56883 5.37797,-1.71974 10.81231,-3.42334 15.80713,-6.067 3.85262,-2.19773 7.60626,-4.87353 10.02084,-8.64035 1.87286,-2.68147 3.13387,-5.93504 2.96375,-9.23804 -0.29119,-2.47709 -1.22486,-5.22644 -3.53341,-6.55391 -1.91926,-1.02375 -4.10055,-1.47898 -6.24016,-1.76536 -3.48496,-0.34061 -6.83393,0.91025 -10.03303,2.08039 -5.17614,2.04395 -9.79903,5.27493 -13.74739,9.12936 -4.12419,3.88124 -7.76818,8.2869 -10.67611,13.13172 -2.59106,4.59667 -4.3597,9.58053 -6.22194,14.4952 -0.79076,1.96286 -2.10352,3.6852 -3.77479,4.99557 -3.24204,2.83021 -6.99378,5.18271 -11.13657,6.49191 -1.94978,0.51987 -4.36523,0.38838 -5.84188,-1.13942 -1.57911,-1.96658 -1.28398,-4.71471 -0.41774,-6.89846 0.99261,-2.8542 2.9436,-5.32151 4.75138,-7.6029 5.54939,-6.54728 11.91252,-12.31169 17.76881,-18.59202 2.06603,-2.31592 4.40938,-4.50529 5.76117,-7.3349 0.59507,-1.12391 0.65794,-2.58513 -0.24401,-3.5854 -1.49627,-1.84534 -4.05673,-2.39397 -6.32581,-2.10519 -5.2329,0.45332 -10.34558,2.12948 -15.57187,2.24346 -0.46361,-0.0535 -1.52074,-0.013 -1.23076,-0.75443 0.34866,-2.31566 1.20933,-4.51306 1.76475,-6.78178 0.54145,-2.00404 1.33135,-4.02972 1.22041,-6.13579 -0.28738,-1.77871 -1.59459,-3.19117 -2.79765,-4.46132 -1.09612,-0.96544 -2.60917,-0.53398 -3.8813,-0.28871 -3.5728,0.76314 -6.33121,3.58432 -7.73381,6.8192 -0.90985,2.12618 -1.63452,4.37077 -1.88032,6.6774 -0.26598,2.62519 0.87848,5.16959 2.49469,7.20649 0.74638,1.01553 1.8859,2.31388 1.19022,3.62192 -1.86662,4.94523 -4.9594,9.30173 -7.99114,13.59752 -3.73812,4.99262 -7.87109,9.65009 -12.48836,13.87711 -4.20189,3.90118 -8.82135,7.514 -13.94698,10.22954 -1.75687,0.87271 -3.59557,1.70181 -5.54949,2.01233 -1.40368,-0.0348 -3.00399,-0.63067 -3.50841,-2.05125 -0.99894,-2.2261 -0.008,-4.60576 0.73561,-6.73087 2.54748,-6.90648 6.6007,-13.11452 10.61055,-19.2517 3.50557,-5.35187 7.77141,-10.14894 12.06647,-14.88292 1.08233,-1.41125 2.52819,-2.70611 2.98073,-4.47053 0.0131,-1.26357 -1.47977,-1.68616 -2.52415,-1.67337 -2.95072,-0.12258 -5.76983,0.89159 -8.50453,1.82482 -1.40805,0.42448 -2.57297,-0.69067 -3.79889,-1.17651 -2.02218,-1.05445 -4.2539,-1.63943 -6.52284,-1.78751 -5.06828,-0.45685 -10.22666,0.18228 -14.99001,1.91377 -4.4453,1.52977 -8.54593,3.89412 -12.3709,6.56897 -6.22605,4.59087 -11.36217,10.53341 -15.34001,17.10796 -2.23739,3.82742 -3.9138,7.98373 -5.54118,12.0568 -0.93704,2.23887 -2.44302,4.2205 -4.38778,5.69733 -3.2699,2.68813 -6.91246,4.95956 -10.80606,6.66355 -1.70776,0.73611 -3.80096,0.77076 -5.47439,-0.10528 -1.96261,-1.35194 -2.73422,-3.9459 -2.27184,-6.19643 0.57965,-3.73546 2.05779,-7.25003 3.34908,-10.78043 1.28441,-3.2285 2.48581,-6.46497 4.11121,-9.53359 1.71847,-2.62359 4.48104,-4.29507 6.70575,-6.45042 11.96451,-10.67522 23.34335,-22.0847 32.98828,-34.88088 3.58575,-4.9797 7.05421,-10.06712 9.95549,-15.47762 1.58804,-3.16754 3.38958,-6.393 3.70445,-9.98668 0.10882,-1.91973 -0.18175,-4.13181 -1.69564,-5.50633 -1.62872,-1.39628 -4.05197,-1.33469 -5.97354,-0.67226 -4.17678,1.599 -7.62778,4.52321 -11.0489,7.2924 -4.55362,3.79774 -8.61845,8.13524 -12.46298,12.62395 -6.18901,7.27186 -11.69473,15.08584 -16.81526,23.12356 -5.30852,8.5497 -10.39935,17.24433 -14.9064,26.23964 -2.71799,5.58204 -4.94726,11.39787 -7.29833,17.12334 -0.76252,1.7785 -1.98694,3.34283 -3.58394,4.46058 -4.30172,3.41733 -8.90093,6.76805 -14.30925,8.23419 -1.71215,0.39588 -3.5527,0.72343 -5.28901,0.29833 -1.53891,-0.4978 -2.6727,-1.80647 -3.14036,-3.31054 -0.76752,-2.20949 0.0567,-4.53117 0.55452,-6.69918 1.67731,-6.1124 4.06471,-12.00964 6.68153,-17.77505 0.7242,-1.48267 1.54343,-2.90837 2.88375,-3.9925 2.1405,-1.78193 4.33388,-3.50141 6.43068,-5.33565 6.45578,-5.56942 12.63656,-11.4675 18.35637,-17.77537 5.94248,-6.5462 11.43221,-13.49658 16.29043,-20.87004 3.02484,-4.55554 5.86208,-9.30881 7.63882,-14.49547 0.60929,-2.14282 1.23135,-4.36979 1.03507,-6.61689 -0.33373,-1.99709 -1.81639,-3.83929 -3.86602,-4.29433 -1.9995,-0.53543 -4.01275,0.34327 -5.81934,1.09042 -3.15846,1.61117 -5.91894,3.86729 -8.63014,6.10997 -4.94374,4.21606 -9.48246,8.88664 -13.5582,13.92842 -4.30907,5.18507 -8.34306,10.5936 -12.01643,16.23902 -5.96576,9.05419 -11.38616,18.45009 -16.57424,27.95857 -3.56299,6.61655 -6.26142,13.62108 -9.25804,20.50288 -1.01938,2.08252 -1.81234,4.35002 -3.38544,6.10222 -3.62837,3.27043 -7.45163,6.46524 -11.92399,8.55759 -1.672,0.71922 -3.6064,1.50191 -5.41328,0.70942 -1.27559,-0.37092 -2.29035,-1.62402 -2.03653,-2.97105 0.74675,-5.22217 3.09219,-10.02891 5.33139,-14.74919 4.06753,-7.96511 8.20957,-15.93204 13.38429,-23.25902 1.19609,-1.79824 2.57471,-3.49842 3.54273,-5.43254 0.6905,-1.07929 0.007,-2.49188 -1.13107,-2.94136 -1.94948,-0.80042 -4.16835,-0.62261 -6.17886,-0.18914 -2.02792,0.48118 -3.93288,1.52491 -5.23826,3.14942 -3.07011,3.43112 -5.01962,7.63474 -7.33374,11.55332 -4.48277,7.90781 -8.55745,16.05025 -13.38365,23.76299 -2.55936,4.03486 -6.0168,7.50512 -10.131,9.99785 -1.93139,1.14397 -3.9063,2.31198 -6.08214,2.94078 -1.81102,0.42005 -4.24223,0.0962 -5.11422,-1.76658 -0.81937,-1.9401 -0.66491,-4.23142 0.18358,-6.12616 1.62105,-3.43226 4.28948,-6.2116 6.70216,-9.10312 5.73714,-6.60677 12.05164,-12.71141 17.57855,-19.49352 1.44915,-1.95196 2.778,-4.07843 3.39746,-6.44442 0.35297,-1.59658 -0.38465,-3.41794 -1.93627,-4.12674 -1.70881,-1.00316 -3.78208,-1.05034 -5.67024,-0.65527 -5.38805,0.70944 -10.6,2.55582 -16.06665,2.71003 -0.41167,-0.0295 -1.16465,-0.023 -0.94331,-0.62111 0.22767,-1.73783 0.86603,-3.39383 1.28052,-5.09314 0.80241,-2.92741 1.84376,-5.8532 1.95376,-8.91312 -0.0113,-1.92019 -1.05821,-4.02632 -3.05686,-4.571 -2.13133,-0.84348 -4.73099,-1.40673 -6.78676,-0.10146 -2.37144,1.29434 -4.22962,3.46144 -5.05127,6.02318 -1.18941,3.19014 -1.76637,6.67792 -1.30654,10.07477 0.45985,2.18753 1.91256,3.96936 3.2103,5.73315 0.56433,0.85943 0.88246,1.94906 0.3931,2.90617 -1.7848,5.78617 -5.01814,10.9869 -8.33211,16.01405 -4.77608,6.91843 -10.24939,13.29059 -16.53774,18.88802 -3.27988,2.92662 -6.98765,5.31781 -10.50649,7.94358 -0.69425,0.41808 -1.50284,1.19737 -1.02615,2.06778 0.42555,0.91625 1.59781,1.18146 2.47043,0.77855 4.39554,-1.15082 8.35916,-3.50892 11.95199,-6.19377 6.29429,-5.08459 11.72468,-11.12985 16.70072,-17.45947 3.14707,-4.03577 5.65961,-8.50106 8.20481,-12.92013 1.44776,-2.63315 2.84703,-5.30508 3.97611,-8.08679 0.30067,-0.76507 1.12646,-0.92699 1.86533,-0.92382 3.44562,-0.35105 6.85489,-0.26133 10.31693,-0.0675 0.62586,0.13639 -0.51396,0.90299 -0.67292,1.29651 -3.98241,4.77141 -8.39828,9.16675 -12.62047,13.72772 -2.3933,2.59736 -4.84595,5.15624 -7.02774,7.93071 -2.36914,3.39843 -4.51612,7.07026 -5.47254,11.12888 -0.57875,3.18308 0.20252,6.61081 2.08577,9.26957 1.52573,1.77037 3.91488,2.38239 6.0601,3.07247 2.39075,0.70089 4.97705,1.11623 7.40427,0.3855 5.27043,-1.20632 9.7992,-4.27665 14.2295,-7.18717 1.13398,-0.71045 2.3131,-1.4756 3.52287,-1.98547 0.74031,1.74616 1.27265,3.69381 2.77231,4.99576 2.30344,2.2094 5.64383,3.47549 8.83333,2.86448 5.46712,-0.65427 10.37858,-3.35069 14.84671,-6.36026 1.8117,-1.15839 3.67524,-2.50391 5.57321,-3.36811 0.5833,1.57352 1.08268,3.22278 2.13309,4.58182 2.1994,3.10055 6.14551,4.36666 9.803,4.62672 4.3052,0.43133 8.63005,-0.61395 12.45594,-2.50448 4.10383,-1.88729 7.87322,-4.42367 12.06621,-6.13193 0.86798,1.36589 1.2836,2.97822 2.34517,4.23362 1.76393,2.33043 4.63257,3.51298 7.38517,4.25574 3.76753,0.88435 7.7201,0.10797 11.17084,-1.46253 4.46818,-1.83226 8.56053,-4.48748 12.90261,-6.4253 1.18083,1.94797 2.36668,4.07025 4.44512,5.21892 2.7602,1.50997 5.97593,1.96171 9.08055,2.06633 2.44227,0.0671 4.85727,-0.45351 7.09704,-1.37992 3.83969,-1.44673 7.37299,-3.54984 11.08531,-5.2672 0.65128,2.5843 2.08337,5.1128 4.4783,6.48374 2.10178,1.291 4.66845,1.57787 7.06805,1.20635 4.52326,-0.51596 8.7011,-2.46457 12.69325,-4.50018 6.84974,-3.83387 12.86238,-8.94458 18.44235,-14.38513 3.54857,-3.59176 6.75215,-7.51204 9.70814,-11.59153 2.77748,-3.90061 5.11934,-8.07416 7.64259,-12.13445 0.96198,-1.49853 1.95245,-3.04753 3.14855,-4.41275 1.01463,-0.54638 2.25297,-0.45011 3.37013,-0.64864 2.77641,-0.25716 5.54533,-0.28468 8.31216,-0.18729 -0.48065,1.05098 -1.40835,1.85973 -2.1283,2.76266 -3.20831,3.45628 -6.72851,6.61631 -10.02196,9.98947 -4.21625,4.24341 -8.4839,8.55072 -11.64432,13.65224 -1.18137,2.07551 -2.32346,4.22705 -2.89156,6.55888 -0.63244,3.47999 -0.0822,7.41998 2.35225,10.17238 2.2697,2.43292 5.68513,3.27622 8.85209,3.84628 3.95124,0.5361 7.82972,-0.80654 11.30868,-2.50428 3.97725,-1.86542 7.74195,-4.12795 11.59168,-6.22926 2.26516,4.0883 6.04762,7.4552 10.63168,8.73926 4.84466,1.4014 10.01699,1.32667 14.91432,0.32122 3.6387,-0.69578 7.14425,-1.95732 10.53519,-3.40456 3.43363,-1.49576 6.56328,-3.56176 9.55707,-5.77156 0.79477,-0.54174 1.57734,-1.03445 2.41235,-1.42209 0.84628,2.10676 1.05602,4.43371 2.19505,6.43807 1.04056,2.11004 3.19603,3.43227 5.43178,4.01338 3.71074,1.22781 7.77212,1.15302 11.47141,-0.005 5.83166,-1.76824 10.78341,-5.41613 16.38955,-7.66915 0.40691,-0.0319 0.45702,0.77324 0.64973,1.09026 0.63113,2.36072 2.15412,4.58181 4.46227,5.60554 3.61379,1.6927 7.72135,2.77795 11.70618,2.07473 4.2181,-1.16786 8.10965,-3.21649 11.97318,-5.19796 1.83125,-0.95273 3.65993,-1.91011 5.48942,-2.86661 1.89184,3.13438 4.59339,6.12538 8.28615,7.08848 2.76724,0.75512 5.67476,0.38676 8.4645,0.0166 4.15723,-0.68218 7.82781,-2.85818 11.47714,-4.80194 1.02052,-0.53841 2.04431,-1.08033 3.1309,-1.48074 0.52339,1.67283 0.8647,3.47181 2.05746,4.84522 1.31396,1.61244 3.26083,2.69392 5.27752,3.15608 3.81593,0.58567 7.67185,-0.35963 11.13812,-1.87976 5.42236,-2.28554 10.15628,-5.82746 14.74681,-9.41346 3.9599,-3.17679 7.76076,-6.56295 11.27715,-10.21397 1.21702,-1.36099 2.54402,-2.76218 3.11483,-4.52483 0.20728,-1.35084 -1.69367,-2.08008 -2.63963,-1.2375 -1.5443,1.04926 -2.81714,2.43313 -4.28592,3.57979 -6.30688,5.3753 -12.61169,10.90162 -19.96373,14.86984 -1.90479,0.94255 -3.87991,2.02588 -5.97843,2.46141 -1.7191,0.2166 -3.26159,-1.17363 -3.65427,-2.7685 -0.26668,-0.78491 -0.30584,-1.8853 -0.1169,-2.79263 0.60438,-3.80913 2.53636,-7.25989 4.16656,-10.75341 2.55576,-5.12264 5.40062,-10.01129 8.6622,-14.70655 3.10082,-4.38987 6.66243,-8.43022 9.98134,-12.65285 0.51087,-0.66104 1.08717,-1.59844 0.38361,-2.3474 -1.06665,-1.03092 -2.72778,-0.94337 -4.10624,-0.865 -1.98491,0.15068 -3.85337,0.9043 -5.7897,1.25114 -1.33952,-0.16655 -2.31556,-1.23037 -3.46055,-1.85144 -1.94178,-1.3095 -4.24929,-2.06973 -6.59962,-2.06828 -3.49958,-0.24842 -7.05564,0.0214 -10.3886,1.11671 -4.3366,1.29032 -8.34845,3.46535 -12.10709,5.91832 -5.1728,3.57668 -9.73649,8.01057 -13.35016,13.13065 -3.19994,4.42827 -5.79159,9.3165 -7.43977,14.52539 -0.7261,2.22828 -2.01346,4.27599 -3.8405,5.77706 -2.76536,2.48863 -6.02339,4.37298 -9.27347,6.17211 -2.52932,1.29178 -5.34028,2.56389 -8.27114,2.14351 -2.72863,-0.86714 -4.38938,-3.91878 -3.87418,-6.65517 0.64015,-4.32733 2.04908,-8.43539 3.43016,-12.57168 1.35587,-3.8793 2.80221,-7.71134 4.9803,-11.19933 1.64646,-1.75534 3.73304,-2.932 5.53991,-4.54183 7.51671,-6.23739 14.47664,-13.11491 21.00563,-20.34803 8.22793,-9.11465 15.9224,-18.82734 21.68474,-29.68164 1.58601,-3.22513 3.07475,-6.81722 2.37676,-10.4867 -0.35669,-2.08833 -2.4017,-3.86439 -4.59323,-3.57509 -3.69759,0.37085 -6.8436,2.52696 -9.81405,4.54422 -7.49979,5.49919 -13.92607,12.28506 -19.80723,19.4164 -6.03534,7.43097 -11.71934,15.17996 -16.40419,23.52748 -4.12181,7.13368 -8.09658,14.36311 -11.69593,21.77312 -2.47663,5.27761 -4.39735,10.78473 -6.57294,16.18532 -0.83724,1.98513 -2.2989,3.62106 -3.98379,4.94976 -3.7479,3.20407 -7.92584,6.10252 -12.6807,7.54031 -2.03778,0.57265 -4.3543,0.67988 -6.23167,-0.46237 -1.36484,-0.65207 -1.69489,-2.25688 -1.98167,-3.58626 -0.54609,-3.3591 0.68706,-6.62957 1.60408,-9.79968 1.4216,-4.34449 3.06795,-8.63 5.09536,-12.73162 0.85787,-1.80439 2.22645,-3.46842 3.83973,-4.75422 8.22516,-7.32377 16.05392,-15.10122 23.22376,-23.44134 4.66886,-5.50737 9.1138,-11.20313 13.16736,-17.17188 3.57438,-5.26763 7.01575,-10.7035 9.17221,-16.71766 0.65118,-1.89021 1.38199,-3.77673 1.76971,-5.73998 0.16786,-1.85231 -0.87634,-3.58381 -2.08162,-4.92419 -0.59413,-0.58322 -1.39042,-0.99557 -2.2375,-1.00559 z m -386.8912,-8.436709 c 1.55254,1.863503 2.10052,4.288839 2.84306,6.530509 1.10235,3.52675 1.15579,7.25788 0.91824,10.90047 -0.23548,4.22534 -1.61045,8.22528 -2.87288,12.2006 -1.29117,3.86932 -2.69415,7.75851 -5.00889,11.15777 -1.63332,2.43991 -3.53624,4.84315 -5.70908,6.8845 -2.98611,2.43563 -6.45384,4.27555 -10.07433,5.62387 -2.57521,0.96709 -5.32993,1.66616 -8.02506,1.88158 -1.94409,0.13094 -4.05368,0.42051 -5.86425,-0.48872 -0.52234,-0.70016 -0.072,-1.6682 0.14495,-2.40821 2.21011,-5.55665 4.93781,-10.8907 7.56515,-16.25973 4.10962,-8.16395 8.11475,-16.45704 13.61959,-23.81233 3.05461,-4.02787 6.32239,-7.96198 10.35622,-11.077956 0.64014,-0.443663 1.34656,-0.99325 2.10721,-1.132359 z M 591.36686,117.3211 c 0.56512,-0.0363 0.0723,0.67341 0.1089,0.95971 -0.69938,2.88576 -1.79521,5.62597 -3.07108,8.29895 -2.35852,4.83259 -5.8363,8.98204 -9.08373,13.21765 -4.94179,6.29741 -10.47244,12.10685 -15.9707,17.92555 -3.3733,3.51388 -6.82893,6.95452 -10.44263,10.22789 3.58792,-7.65975 7.89155,-14.97839 12.33421,-22.19782 5.56572,-8.83148 11.50635,-17.58747 19.23437,-24.73017 1.78858,-1.59499 3.73332,-3.33397 6.20153,-3.72228 0.22968,-0.019 0.46023,-0.006 0.68916,0.0207 z m -37.13214,-1.25513 c 0.47614,0.30352 0.0346,0.97889 0.0516,1.43772 -0.83435,4.89803 -3.14977,9.38078 -5.82599,13.51922 -2.89447,4.63729 -6.05966,9.11413 -9.64039,13.25966 -5.5765,6.60604 -11.37825,13.04242 -17.43657,19.20297 -0.69357,0.67199 -1.39324,1.33879 -2.12498,1.97028 2.69367,-5.85977 5.87062,-11.48512 9.01107,-17.11649 4.95426,-8.76265 10.47897,-17.29035 16.82553,-25.09435 2.12753,-2.57716 4.45816,-5.12627 7.44542,-6.7438 0.53224,-0.2302 1.09207,-0.51677 1.69435,-0.43521 z m -229.62923,-2.54645 c 0.67119,0.61881 0.21032,1.65907 0.16135,2.43634 -1.05042,6.1484 -4.53838,11.51097 -7.96649,16.56179 -4.86936,7.28323 -10.83285,13.75662 -16.80735,20.15379 -3.36488,3.53651 -6.74764,7.05597 -10.27751,10.44369 -0.5829,0.51703 -1.29545,1.14508 -1.92118,1.4341 6.78439,-13.32015 14.58217,-26.15438 23.5627,-38.13818 3.44876,-4.26745 6.75773,-8.68276 11.21478,-11.99085 0.61421,-0.40955 1.26933,-0.84897 2.0337,-0.90068 z m 36.2613,2.0206 c 1.00346,1.3708 0.64317,3.18411 -0.0556,4.57706 -2.43715,5.66184 -5.90886,10.80776 -9.46472,15.82768 -2.95843,4.09612 -6.37841,7.84014 -9.7033,11.64429 -5.31906,5.89782 -10.71101,11.74217 -16.41266,17.28262 -0.50103,0.46606 -1.01896,0.91403 -1.54687,1.34998 3.59406,-7.3227 7.83265,-14.27417 12.01318,-21.27498 3.85015,-6.25538 7.8691,-12.52497 12.6416,-18.17882 3.08837,-3.72461 6.30753,-7.40541 10.13083,-10.41605 0.67945,-0.45785 1.42763,-0.84854 2.24248,-1.00914 0.052,0.0658 0.1034,0.1316 0.15506,0.19736 z m -86.81714,10.26565 c -3.17466,0.10431 -6.16549,1.84057 -8.08949,4.27334 -1.60389,2.08227 -2.58297,4.8555 -1.94729,7.47509 0.72134,2.1702 2.70341,3.61057 4.58398,4.77095 1.21478,0.70442 2.57939,-0.0244 3.77638,-0.38047 2.91811,-1.1669 5.75573,-3.0644 7.05577,-6.00177 0.90205,-1.63471 1.52986,-3.54189 1.03181,-5.41335 -0.36542,-2.15684 -1.99581,-4.20126 -4.26088,-4.56666 -0.70417,-0.16135 -1.43243,-0.16846 -2.15029,-0.15715 z m 149.51412,25.30594 c 0.31311,0.82831 0.009,1.77049 -0.0367,2.63286 -0.17184,1.31361 -0.42642,2.65336 -0.88023,3.88207 -0.94983,-1.16551 -0.97547,-2.83027 -0.81231,-4.2531 0.055,-0.95793 0.64532,-2.17634 1.72935,-2.26182 z m 183.42847,13.5476 c 1.8953,0.16761 4.14345,0.62628 5.16968,2.39959 0.5302,1.46952 -0.59038,2.81998 -1.14337,4.10496 -3.98851,7.48951 -8.67558,14.59568 -12.59601,22.11919 -1.52215,2.31267 -3.45197,4.3397 -5.40852,6.297 -2.13939,2.12056 -4.59756,3.94099 -7.3856,5.1498 -1.95124,0.85088 -4.11972,1.65094 -6.28949,1.28177 -2.08535,-0.81695 -3.28614,-3.01689 -3.62826,-5.11496 -0.16293,-1.80798 0.26307,-3.62514 0.64071,-5.38565 0.86794,-3.40324 2.14967,-6.63588 3.62875,-9.78448 2.11264,-4.16252 5.03053,-7.74036 8.18591,-11.14216 2.98237,-3.09301 6.09359,-6.01177 10.06824,-7.7963 2.72291,-1.31037 5.74143,-2.30198 8.75795,-2.12878 z M 484.84619,162.1509 c 1.29372,0.19375 2.08616,1.5208 1.93877,2.74575 0.0941,2.44436 -1.60875,4.39256 -3.05292,6.18139 -4.44808,5.22134 -10.72678,8.40639 -16.87638,11.27188 -1.77954,0.80134 -3.6056,1.51553 -5.49305,2.03372 -0.52538,-0.80914 0.27658,-1.64555 0.52159,-2.36331 2.00733,-4.0308 4.78229,-7.64563 7.80726,-10.97576 2.30008,-2.42366 4.85357,-4.66099 7.71412,-6.49146 2.12101,-1.21017 4.38274,-2.67811 6.9572,-2.42265 0.16191,-0.004 0.32296,-0.007 0.48341,0.0204 z m -278.08034,-9.91843 c 0.92262,1.00764 0.47488,2.49864 0.35725,3.70527 -0.11931,0.74687 -0.3143,1.48899 -0.67158,2.16001 -0.77631,-0.96758 -0.32068,-2.39809 -0.3058,-3.43942 0.0967,-0.81302 0.26087,-1.65696 0.53479,-2.48283 z m 172.15084,9.66081 c 1.94163,0.14962 3.76694,1.68781 4.16155,3.57992 0.1053,0.98611 -0.78061,1.68744 -1.13325,2.5395 -2.49344,4.05999 -5.24194,7.96139 -7.66313,12.06147 -3.47806,5.68398 -6.67972,11.60605 -11.07129,16.67067 -3.25614,3.35837 -6.99999,6.5084 -11.56386,7.94095 -1.42422,0.35258 -3.02865,0.4794 -4.41518,-0.0696 -2.01999,-1.15277 -3.1408,-3.52139 -3.19117,-5.75861 0.22148,-3.60854 1.33564,-7.21118 2.64377,-10.60863 2.16359,-5.42415 5.57407,-10.52849 9.46874,-14.94607 2.78831,-3.07016 6.07018,-5.70976 9.63335,-7.85942 3.89757,-2.26451 8.49339,-3.80217 13.13047,-3.55019 z m -235.86887,-4.01249 c 3.15488,0.20243 6.25781,0.28176 9.31586,0.89754 2.06962,0.72399 3.68681,2.22536 5.02185,3.84157 1.88579,2.17919 3.42153,4.69427 4.11679,7.49355 1.71427,5.96693 1.99532,12.39264 0.25508,18.36166 -1.28485,4.46794 -3.53465,8.68875 -6.16579,12.56335 -2.00738,2.73404 -4.3632,5.23026 -6.97272,7.40918 -4.85295,3.83572 -10.41262,6.88512 -16.28719,9.02205 -3.44687,1.14431 -7.03295,1.83618 -10.60044,2.5188 -5.5357,0.98183 -11.12594,1.4915 -16.79489,1.61616 -5.48973,0.0573 -11.120918,-0.28536 -16.590321,-0.77004 -5.750777,-0.5788 -11.493128,-1.39486 -17.129304,-2.69999 -0.695141,-0.16666 -1.383407,-0.35898 -2.069757,-0.55843 4.440828,-0.7237 8.863285,-1.62252 12.962563,-3.49978 7.312431,-3.24492 14.083283,-7.61084 20.183599,-12.7273 5.42272,-4.71844 10.45861,-9.8818 14.84539,-15.5602 5.8406,-7.30135 10.74831,-15.2709 15.52292,-23.27952 0.91014,-1.46499 1.82883,-2.93959 2.85566,-4.3207 1.23767,-0.48307 2.59633,-0.31054 3.91064,-0.39425 1.20699,-8.9e-4 2.41364,0.0419 3.61997,0.0867 z" /></g></g></svg>
